<svg xmlns="http://www.w3.org/2000/svg" viewBox="0 0 512 512">
  <!-- Proper Canadian Maple Leaf -->
  <path fill="#8F020D" d="M383.8 351.7c2.5-2.5 105.2-92.4 105.2-92.4l-17.5-7.5c-10-4.3-7.9-11.8-4-19.5 4-7.8 11.3-30.5 11.3-30.5l-33.5 14.5c-9.2 4-14.2-1.5-14.2-11 0-9.5 5-57 5-57l-31 17.5c-7.8 4.5-13.3 1.5-15.8-7.8-2.5-9.2-14.2-55.8-14.2-55.8l-18.3 31.3c-4.5 7.8-12.5 7.8-19.2 1.5-6.7-6.3-56.3-59.5-56.3-59.5l-8.3 33c-2.5 10.3-9.5 12.5-18.3 8.3l-62.8-31.3 22 56.5c4 10.3-.3 14.8-10.8 14.8h-62l33 28c8.5 7.3 7.3 13.8 1 22l-35 45.3 55.8-8.5c11.3-1.5 14.3 3 16.3 12l8.5 47.5 28.3-32.5c7-8 14-7.3 21.5 1l42.3 47s68.8-55.8 76.3-64.3z"/>
  <!-- Stem -->
  <path fill="#8F020D" d="M256 410v90c0 6.6 5.4 12 12 12h-24c6.6 0 12-5.4 12-12v-90h0z"/>
</svg>
